<?xml version="1.0" encoding="utf-8"?>
<!DOCTYPE svg PUBLIC "-//W3C//DTD SVG 1.1//EN" "http://www.w3.org/Graphics/SVG/1.1/DTD/svg11.dtd">
<svg version="1.1" xmlns="http://www.w3.org/2000/svg" xmlns:xlink="http://www.w3.org/1999/xlink" x="0px" y="0px" width="105px"
	 height="37px" viewBox="0 0 105 37" enable-background="new 0 0 105 37" xml:space="preserve">
<symbol  id="coche" viewBox="-13 -11.994 26 23.988">
	<path fill="none" stroke="#BA4100" stroke-width="4" stroke-linejoin="bevel" stroke-miterlimit="10" d="M-11.347,0.62
		c3.135-3.705,6.19-7.326,7.045-11.886c2.565,6.555,6.27,14.27,15.96,21.67"/>
	<polygon display="none" fill="none" points="-13,11 13,11 13,-11 -13,-11 	"/>
</symbol>
<g id="Charte">
	
		<use xlink:href="#coche"  width="26" height="23.988" x="-13" y="-11.994" transform="matrix(0.6168 0 0 -0.6168 557 136)" overflow="visible"/>
	<g>
		<path fill="none" stroke="#000000" stroke-miterlimit="10" d="M557.234,180.727c-3.213,0-5.828,2.111-5.828,4.707
			c0,0.828,0.26,1.623,0.758,2.33l-0.398,1.393l-0.592,2.072l1.98-0.85l1.599-0.686c0.774,0.295,1.624,0.448,2.481,0.448
			c3.214,0,5.83-2.112,5.83-4.708S560.448,180.727,557.234,180.727"/>
	</g>
	<g>
		<path fill="none" stroke="#000000" stroke-miterlimit="10" d="M554.443,164.385c1.961-3.482,6.131-3.482,8.027-0.68
			c1.661,2.456-0.334,5.512-2.198,7.571c-1.263,1.396-4.942,4.687-5.829,1.496"/>
		<path fill="none" stroke="#000000" stroke-miterlimit="10" d="M555.62,169.879c2.782-0.643,1.624-3.318-0.298-3.188
			c1.055-2.183,2.162-3.091,3.743-2.792c1.511,0.285,2.294,1.391,1.512,3.202"/>
	</g>
	<rect id="_x3C_Tranche_x3E__9_" x="543" y="77" fill="none" width="27" height="27"/>
	<rect id="_x3C_Tranche_x3E__13_" x="578" y="77" fill="none" width="27" height="27"/>
	<rect id="_x3C_Tranche_x3E__10_" x="548" y="127" fill="none" width="18" height="18"/>
	<rect id="_x3C_Tranche_x3E__11_" x="548" y="159" fill="none" width="18" height="18"/>
	<rect id="_x3C_Tranche_x3E__12_" x="548" y="177" fill="none" width="18" height="18"/>
	<rect id="_x3C_Tranche_x3E__14_" x="611" y="77" fill="none" width="32" height="32"/>
	<path fill="none" stroke="#BA4100" stroke-width="4" stroke-linejoin="bevel" stroke-miterlimit="10" d="M545.189,90.93
		c3.135,3.705,6.189,7.326,7.045,11.886c2.565-6.555,6.271-14.27,15.961-21.67"/>
	<g>
		<path fill="#FFFFFF" d="M56.008,26.707h-2.032l-1.318-3.48h-6.723l-1.297,3.48h-2.032l5.729-14.397h1.945L56.008,26.707z
			 M46.54,21.627h5.534l-2.767-7.501L46.54,21.627z"/>
		<path fill="#FFFFFF" d="M60.958,26.707h-1.989V12.31h3.74c0.778,0,1.502,0.086,2.172,0.26c0.67,0.173,1.257,0.429,1.762,0.767
			c0.504,0.339,0.9,0.764,1.189,1.275c0.288,0.512,0.432,1.099,0.432,1.762c0,0.995-0.321,1.859-0.962,2.594s-1.539,1.268-2.691,1.6
			l5.08,6.139h-2.442l-4.691-5.793c-0.072,0-0.181,0.004-0.324,0.011c-0.145,0.008-0.296,0.011-0.454,0.011
			c-0.159,0-0.313,0-0.465,0s-0.27,0-0.356,0V26.707z M66.275,16.417c0-0.447-0.097-0.833-0.292-1.157
			c-0.195-0.324-0.458-0.583-0.789-0.778c-0.332-0.195-0.713-0.339-1.146-0.433c-0.432-0.094-0.886-0.141-1.362-0.141h-1.729v5.426
			h0.994c0.605,0,1.171-0.057,1.697-0.173c0.526-0.115,0.984-0.292,1.373-0.529s0.695-0.541,0.918-0.908
			C66.164,17.358,66.275,16.922,66.275,16.417z"/>
		<path fill="#FFFFFF" d="M72.22,12.31h8.02v1.622h-6.031v4.604h5.771v1.622h-5.771v4.929h6.096v1.621H72.22V12.31z"/>
		<path fill="#FFFFFF" d="M93.837,26.707l-8.063-11.306v11.306h-1.902V12.31h1.902l8.063,11.306V12.31h1.902v14.397H93.837z"/>
	</g>
	<path fill="#FFFFFF" d="M25.487,7.171C21.646,7.171,18.359,9,17.023,12H10v15h13v-5.776c1,0.315,1.752,0.487,2.857,0.487
		c5.021,0,8.922-3.215,8.922-7.27C34.779,10.386,30.509,7.171,25.487,7.171z M11,26V13h5.635c-0.161,0-0.255,1.113-0.255,1.698
		c0,0.442,0.064,0.302,0.158,1.302H13v1h3.851c0.188,0,0.414,0.912,0.713,1.336L17.374,19H13v1h4.089l-0.146,0.513L16.517,22H13v1
		h3.231l-0.214,0.58l3.466-1.412L22,21.162V26H11z M25.857,20.11c-1.159,0-1.857-0.214-2.857-0.575v-0.07
		c0-0.063-0.697-0.121-0.852-0.192l-0.27,0.036c-0.03-0.013-0.155-0.022-0.184-0.036l-3.167,1.337l0.825-2.969
		c-0.848-0.932-1.361-2.064-1.361-3.286c0-0.598,0.114-1.174,0.334-1.715c0.05-0.035,0.104-0.177,0.165-0.351
		c1.083-2.156,3.803-3.688,6.998-3.688c4.146,0,7.69,2.576,7.69,5.755C33.179,17.534,30.003,20.11,25.857,20.11z"/>
</g>
<g id="dispo">
	<g>
		<circle fill="#FFFFFF" stroke="#BA4100" stroke-miterlimit="10" cx="433.926" cy="119.396" r="47"/>
		<polygon fill="none" stroke="#BA4100" stroke-miterlimit="10" points="463.264,119.5 433.5,149.264 433.5,89.736 		"/>
		<path fill="#FFFFFF" stroke="#BA4100" stroke-width="3" stroke-miterlimit="10" d="M423.567,105.23
			c10.684,0,19.343,6.639,19.343,14.83c0,8.189-8.659,14.828-19.343,14.828c-3.667,0-7.087-0.797-10.011-2.158l-8.041,3.447
			l2.186-7.648c-2.185-2.402-3.476-5.32-3.476-8.469C404.226,111.869,412.884,105.23,423.567,105.23"/>
	</g>
	<g>
		<circle fill="#FFFFFF" stroke="#BA4100" stroke-linejoin="bevel" stroke-miterlimit="10" cx="252.821" cy="119.396" r="47"/>
		<g>
			<defs>
				<circle id="SVGID_1_" cx="252.822" cy="119.396" r="41.745"/>
			</defs>
			<clipPath id="SVGID_2_">
				<use xlink:href="#SVGID_1_"  overflow="visible"/>
			</clipPath>
			<g clip-path="url(#SVGID_2_)">
				
					<rect x="232.976" y="98.12" transform="matrix(0.8741 -0.4858 0.4858 0.8741 -31.6147 143.8284)" fill="none" stroke="#BA4100" stroke-miterlimit="10" width="57.248" height="69.541"/>
				
					<line fill="none" stroke="#BA4100" stroke-width="3" stroke-miterlimit="10" x1="231.366" y1="120.758" x2="267.437" y2="100.705"/>
				
					<line fill="none" stroke="#BA4100" stroke-width="3" stroke-miterlimit="10" x1="236.186" y1="128.723" x2="272.256" y2="108.672"/>
				<path fill="#BA4100" d="M261.747,134.221c0.807,2.135,13.293,15.248,12.809,10.5c-0.339-3.314-3.019-6.402-6.479-8.314
					c-0.898-0.497-2.804-1.389-4.602-1.699c3.349-4.559,6.228-11.474,4.207-15.003C264.629,114.375,262.795,134.348,261.747,134.221
					c-8.122-0.986-13.666,3.619-16.324,6.834c-2.869,3.467,14.04-1.58,16.914-5.424"/>
			</g>
		</g>
	</g>
	<g>
		<circle fill="#FFFFFF" stroke="#BA4100" stroke-miterlimit="10" cx="51.7" cy="119.381" r="47"/>
		<g>
			<defs>
				<circle id="SVGID_3_" cx="51.7" cy="119.381" r="41.756"/>
			</defs>
			<clipPath id="SVGID_4_">
				<use xlink:href="#SVGID_3_"  overflow="visible"/>
			</clipPath>
			<g clip-path="url(#SVGID_4_)">
				<path fill="none" stroke="#BA4100" stroke-width="3" stroke-miterlimit="10" d="M17.852,106.994
					c2.943-0.461,5.734,1.773,6.24,4.991c0.502,3.218-1.474,6.198-4.415,6.659c-2.939,0.461-5.732-1.774-6.236-4.992
					C12.938,110.436,14.913,107.453,17.852,106.994z"/>
				<path fill="none" stroke="#BA4100" stroke-width="3" stroke-miterlimit="10" d="M39.857,113.053
					c-7.707,0-11.186,7.278-13.323,14.526c-1.382-3.872-4.029-6.448-7.091-6.125c-3.915,0.411-6.378,5.374-5.776,11.097
					c0.02,0.188,0.192,8.483,1.016,16.301c7.634,9.37,18.816,15.724,30.816,16.993c0-6.462,0-25.986,0-31.819
					C45.5,128.715,47.602,113.055,39.857,113.053z"/>
				
					<ellipse transform="matrix(0.8511 0.5251 -0.5251 0.8511 66.299 -22.7438)" fill="none" stroke="#BA4100" stroke-width="3" stroke-miterlimit="10" cx="73.238" cy="105.488" rx="6.405" ry="9.553"/>
				<path fill="none" stroke="#BA4100" stroke-width="3" stroke-miterlimit="10" d="M72.15,118.426
					c-4.487-1.149-9.706,2.053-7.496,10.033c2.145,8.679-2.77,11.829-4.259,21.116c-1.042,6.494-0.873,11.972-0.466,15.767
					c7.161-1.273,13.757-4.171,19.391-8.312c-1.368-16.211-0.25-20.078,0.562-25.862C80.97,123.431,76.806,119.619,72.15,118.426z"
					/>
				
					<ellipse fill="none" stroke="#BA4100" stroke-width="3" stroke-miterlimit="10" cx="41.046" cy="97.613" rx="5.623" ry="10.569"/>
			</g>
		</g>
		<g>
			
				<ellipse transform="matrix(-0.1548 -0.988 0.988 -0.1548 -6.898 152.116)" fill="none" stroke="#BA4100" stroke-miterlimit="10" cx="61.623" cy="79.009" rx="2.785" ry="2.546"/>
			
				<ellipse transform="matrix(-0.1548 -0.9879 0.9879 -0.1548 -54.7164 186.4306)" fill="none" stroke="#BA4100" stroke-miterlimit="10" cx="52.387" cy="116.62" rx="1.812" ry="1.656"/>
			
				<ellipse transform="matrix(-0.1549 -0.9879 0.9879 -0.1549 -39.8814 184.3817)" fill="none" stroke="#BA4100" stroke-miterlimit="10" cx="58.924" cy="109.249" rx="1.373" ry="1.256"/>
			
				<ellipse transform="matrix(-0.5888 0.8083 -0.8083 -0.5888 156.4614 104.4724)" fill="none" stroke="#BA4100" stroke-miterlimit="10" cx="51.656" cy="92.036" rx="1.12" ry="1.023"/>
			
				<ellipse transform="matrix(-0.5888 0.8083 -0.8083 -0.5888 133.6327 146.0866)" fill="none" stroke="#BA4100" stroke-miterlimit="10" cx="29.656" cy="107.036" rx="1.12" ry="1.023"/>
			
				<ellipse transform="matrix(-0.1549 -0.9879 0.9879 -0.1549 -20.4647 155.6905)" fill="none" stroke="#BA4100" stroke-miterlimit="10" cx="56.361" cy="86.599" rx="1.786" ry="1.634"/>
			
				<ellipse transform="matrix(-0.1549 -0.9879 0.9879 -0.1549 -102.6775 140.1685)" fill="none" stroke="#BA4100" stroke-miterlimit="10" cx="8.615" cy="114.002" rx="1.081" ry="0.988"/>
			
				<ellipse transform="matrix(-0.1548 -0.988 0.988 -0.1548 -65.564 197.9867)" fill="none" stroke="#BA4100" stroke-miterlimit="10" cx="51.912" cy="127.04" rx="2.671" ry="2.443"/>
			
				<ellipse transform="matrix(-0.1548 -0.9879 0.9879 -0.1548 -64.3904 212.9937)" fill="none" stroke="#BA4100" stroke-miterlimit="10" cx="58.912" cy="134.04" rx="3.427" ry="3.134"/>
			
				<ellipse transform="matrix(-0.1549 -0.9879 0.9879 -0.1549 0.739 218.7122)" fill="none" stroke="#BA4100" stroke-miterlimit="10" cx="93.912" cy="109.04" rx="1.984" ry="1.815"/>
			
				<ellipse transform="matrix(-0.1548 -0.9879 0.9879 -0.1548 -2.5136 206.7628)" fill="none" stroke="#BA4100" stroke-miterlimit="10" cx="87.183" cy="104.457" rx="1.294" ry="1.184"/>
			
				<ellipse transform="matrix(-0.1547 -0.988 0.988 -0.1547 -8.9992 232.3804)" fill="none" stroke="#BA4100" stroke-miterlimit="10" cx="94.912" cy="120.04" rx="2.894" ry="2.647"/>
			
				<ellipse transform="matrix(-0.1548 -0.9879 0.9879 -0.1548 -26.1309 233.7238)" fill="none" stroke="#BA4100" stroke-miterlimit="10" cx="86.912" cy="128.04" rx="4.003" ry="3.661"/>
		</g>
	</g>
	<rect id="_x3C_Tranche_x3E__5_" y="68" fill="none" width="103" height="103"/>
	<rect id="_x3C_Tranche_x3E__4_" x="201" y="68" fill="none" width="103" height="103"/>
	<rect id="_x3C_Tranche_x3E__3_" x="382" y="68" fill="none" width="103" height="103"/>
	<g>
		<circle fill="none" stroke="#BA4100" stroke-miterlimit="10" cx="626.797" cy="93.213" r="14"/>
		<polyline fill="none" stroke="#BA4100" stroke-miterlimit="10" points="628.406,100.82 620.646,93.061 628.102,85.604 		"/>
	</g>
	<g>
		<circle fill="none" stroke="#336362" stroke-miterlimit="10" cx="591.358" cy="90.652" r="10"/>
		<g>
			<line fill="none" stroke="#336362" stroke-miterlimit="10" x1="586.911" y1="95.099" x2="595.805" y2="86.206"/>
			<line fill="none" stroke="#336362" stroke-miterlimit="10" x1="595.805" y1="95.099" x2="586.911" y2="86.206"/>
		</g>
	</g>
</g>
<g id="survol" display="none">
	<g display="inline">
		<circle fill="#FFFFFF" stroke="#BA4100" stroke-miterlimit="10" cx="51.7" cy="119.38" r="47"/>
		<g>
			<defs>
				<circle id="SVGID_5_" cx="51.7" cy="119.38" r="41.756"/>
			</defs>
			<clipPath id="SVGID_6_">
				<use xlink:href="#SVGID_5_"  overflow="visible"/>
			</clipPath>
			<g clip-path="url(#SVGID_6_)">
				<path fill="none" stroke="#BA4100" stroke-width="3" stroke-miterlimit="10" d="M17.852,106.994
					c2.943-0.462,5.734,1.773,6.24,4.991c0.502,3.217-1.474,6.199-4.415,6.66c-2.939,0.46-5.732-1.775-6.236-4.992
					C12.938,110.437,14.913,107.453,17.852,106.994z"/>
				<path fill="none" stroke="#BA4100" stroke-width="3" stroke-miterlimit="10" d="M39.857,113.054
					c-7.707-0.001-11.186,7.277-13.323,14.525c-1.382-3.873-4.029-6.449-7.091-6.125c-3.915,0.411-6.378,5.375-5.776,11.097
					c0.02,0.188,0.192,8.483,1.016,16.301c7.634,9.37,18.816,15.724,30.816,16.993c0-6.462,0-25.986,0-31.819
					C45.5,128.715,47.602,113.054,39.857,113.054z"/>
				
					<ellipse transform="matrix(0.8511 0.5251 -0.5251 0.8511 66.2985 -22.744)" fill="none" stroke="#BA4100" stroke-width="3" stroke-miterlimit="10" cx="73.238" cy="105.487" rx="6.405" ry="9.554"/>
				<path fill="none" stroke="#BA4100" stroke-width="3" stroke-miterlimit="10" d="M72.15,118.427
					c-4.487-1.15-9.706,2.053-7.496,10.032c2.145,8.679-2.77,11.829-4.259,21.116c-1.042,6.494-0.873,11.972-0.466,15.767
					c7.161-1.273,13.757-4.171,19.391-8.312c-1.368-16.211-0.25-20.078,0.562-25.861C80.97,123.431,76.806,119.619,72.15,118.427z"
					/>
				
					<ellipse fill="none" stroke="#BA4100" stroke-width="3" stroke-miterlimit="10" cx="41.046" cy="97.613" rx="5.623" ry="10.569"/>
			</g>
		</g>
		<g>
			
				<ellipse transform="matrix(-0.1548 -0.988 0.988 -0.1548 -6.897 152.1148)" fill="none" stroke="#BA4100" stroke-miterlimit="10" cx="61.623" cy="79.008" rx="2.785" ry="2.546"/>
			
				<ellipse transform="matrix(-0.1548 -0.9879 0.9879 -0.1548 -54.7164 186.4306)" fill="none" stroke="#BA4100" stroke-miterlimit="10" cx="52.387" cy="116.62" rx="1.812" ry="1.656"/>
			
				<ellipse transform="matrix(-0.1548 -0.9879 0.9879 -0.1548 -39.885 184.3757)" fill="none" stroke="#BA4100" stroke-miterlimit="10" cx="58.924" cy="109.249" rx="1.373" ry="1.256"/>
			
				<ellipse transform="matrix(-0.5892 0.808 -0.808 -0.5892 156.455 104.5263)" fill="none" stroke="#BA4100" stroke-miterlimit="10" cx="51.656" cy="92.036" rx="1.119" ry="1.024"/>
			
				<ellipse transform="matrix(-0.5892 0.808 -0.808 -0.5892 133.6126 146.14)" fill="none" stroke="#BA4100" stroke-miterlimit="10" cx="29.656" cy="107.036" rx="1.119" ry="1.024"/>
			
				<ellipse transform="matrix(-0.1548 -0.9879 0.9879 -0.1548 -20.4706 155.684)" fill="none" stroke="#BA4100" stroke-miterlimit="10" cx="56.361" cy="86.599" rx="1.787" ry="1.634"/>
			
				<ellipse transform="matrix(-0.1549 -0.9879 0.9879 -0.1549 -102.6762 140.1769)" fill="none" stroke="#BA4100" stroke-miterlimit="10" cx="8.615" cy="114.002" rx="1.081" ry="0.989"/>
			
				<ellipse transform="matrix(-0.1548 -0.988 0.988 -0.1548 -65.564 197.9867)" fill="none" stroke="#BA4100" stroke-miterlimit="10" cx="51.912" cy="127.04" rx="2.671" ry="2.443"/>
			
				<ellipse transform="matrix(-0.1548 -0.9879 0.9879 -0.1548 -64.3904 212.9937)" fill="none" stroke="#BA4100" stroke-miterlimit="10" cx="58.912" cy="134.04" rx="3.427" ry="3.134"/>
			
				<ellipse transform="matrix(-0.1549 -0.9879 0.9879 -0.1549 0.7307 218.7051)" fill="none" stroke="#BA4100" stroke-miterlimit="10" cx="93.912" cy="109.04" rx="1.985" ry="1.815"/>
			
				<ellipse transform="matrix(-0.1548 -0.9879 0.9879 -0.1548 -2.5136 206.7628)" fill="none" stroke="#BA4100" stroke-miterlimit="10" cx="87.183" cy="104.457" rx="1.294" ry="1.184"/>
			
				<ellipse transform="matrix(-0.1547 -0.988 0.988 -0.1547 -8.9992 232.3804)" fill="none" stroke="#BA4100" stroke-miterlimit="10" cx="94.912" cy="120.04" rx="2.894" ry="2.647"/>
			
				<ellipse transform="matrix(-0.1548 -0.9879 0.9879 -0.1548 -26.1334 233.7222)" fill="none" stroke="#BA4100" stroke-miterlimit="10" cx="86.912" cy="128.04" rx="4.003" ry="3.661"/>
		</g>
		<circle fill="none" stroke="#60C3C5" stroke-miterlimit="10" cx="51.7" cy="119.38" r="50"/>
	</g>
	<g display="inline">
		<g>
			<circle fill="#FFFFFF" stroke="#BA4100" stroke-linejoin="bevel" stroke-miterlimit="10" cx="252.821" cy="119.396" r="47"/>
			<g>
				<defs>
					<circle id="SVGID_7_" cx="252.822" cy="119.396" r="41.745"/>
				</defs>
				<clipPath id="SVGID_8_">
					<use xlink:href="#SVGID_7_"  overflow="visible"/>
				</clipPath>
				<g clip-path="url(#SVGID_8_)">
					
						<rect x="232.976" y="98.12" transform="matrix(0.8741 -0.4858 0.4858 0.8741 -31.6147 143.8284)" fill="none" stroke="#BA4100" stroke-miterlimit="10" width="57.248" height="69.541"/>
					
						<line fill="none" stroke="#BA4100" stroke-width="3" stroke-miterlimit="10" x1="231.366" y1="120.758" x2="267.437" y2="100.705"/>
					
						<line fill="none" stroke="#BA4100" stroke-width="3" stroke-miterlimit="10" x1="236.186" y1="128.723" x2="272.256" y2="108.672"/>
					<path fill="#BA4100" d="M261.747,134.221c0.807,2.135,13.293,15.248,12.809,10.5c-0.339-3.314-3.019-6.402-6.479-8.314
						c-0.898-0.497-2.804-1.389-4.602-1.699c3.349-4.559,6.228-11.474,4.207-15.003
						C264.629,114.375,262.795,134.348,261.747,134.221c-8.122-0.986-13.666,3.619-16.325,6.834
						c-2.868,3.467,14.041-1.58,16.915-5.424"/>
				</g>
			</g>
		</g>
		<circle fill="none" stroke="#60C3C5" stroke-linejoin="bevel" stroke-miterlimit="10" cx="252.821" cy="119.396" r="50"/>
	</g>
	<g display="inline">
		<g>
			<circle fill="#FFFFFF" stroke="#BA4100" stroke-miterlimit="10" cx="433.926" cy="119.396" r="47"/>
			<polygon fill="none" stroke="#BA4100" stroke-miterlimit="10" points="463.264,119.5 433.5,149.264 433.5,89.736 			"/>
			<path fill="#FFFFFF" stroke="#BA4100" stroke-width="3" stroke-miterlimit="10" d="M423.567,104.935
				c10.684,0,19.343,6.639,19.343,14.83c0,8.189-8.659,14.828-19.343,14.828c-3.667,0-7.087-0.798-10.011-2.158l-8.041,3.447
				l2.186-7.649c-2.185-2.402-3.476-5.319-3.476-8.468C404.226,111.573,412.884,104.935,423.567,104.935"/>
		</g>
		<circle fill="none" stroke="#60C3C5" stroke-miterlimit="10" cx="433.926" cy="119.396" r="50"/>
	</g>
	<g display="inline">
		<circle fill="none" stroke="#BA4100" stroke-width="2" stroke-miterlimit="10" cx="626.797" cy="93.213" r="14"/>
		<polyline fill="none" stroke="#BA4100" stroke-miterlimit="10" points="628.406,100.82 620.646,93.061 628.102,85.604 		"/>
	</g>
	<g display="inline">
		<circle fill="none" stroke="#336362" stroke-width="2" stroke-miterlimit="10" cx="591.358" cy="90.652" r="10"/>
		<g>
			<line fill="none" stroke="#336362" stroke-miterlimit="10" x1="586.911" y1="95.099" x2="595.805" y2="86.206"/>
			<line fill="none" stroke="#336362" stroke-miterlimit="10" x1="595.805" y1="95.099" x2="586.911" y2="86.206"/>
		</g>
	</g>
</g>
<g id="clic" display="none">
	<g display="inline">
		<circle fill="#BA4100" stroke="#BA4100" stroke-width="2" stroke-miterlimit="10" cx="433.926" cy="119.396" r="47"/>
		<polygon fill="#FFFFFF" stroke="#FFFFFF" stroke-miterlimit="10" points="463.264,119.5 433.5,149.264 433.5,89.736 		"/>
		<path fill="#FFFFFF" stroke="#BA4100" stroke-width="2" stroke-miterlimit="10" d="M423.567,104.935
			c10.684,0,19.343,6.639,19.343,14.83c0,8.189-8.659,14.828-19.343,14.828c-3.667,0-7.087-0.798-10.011-2.158l-8.041,3.447
			l2.186-7.649c-2.185-2.402-3.476-5.319-3.476-8.468C404.226,111.573,412.884,104.935,423.567,104.935"/>
	</g>
	<g display="inline">
		
			<circle fill="#BA4100" stroke="#BA4100" stroke-width="2" stroke-linejoin="bevel" stroke-miterlimit="10" cx="252.821" cy="119.396" r="47"/>
		<g>
			<defs>
				<circle id="SVGID_9_" cx="252.822" cy="119.396" r="41.745"/>
			</defs>
			<clipPath id="SVGID_10_">
				<use xlink:href="#SVGID_9_"  overflow="visible"/>
			</clipPath>
			<g clip-path="url(#SVGID_10_)">
				
					<rect x="232.976" y="98.12" transform="matrix(0.8741 -0.4858 0.4858 0.8741 -31.6147 143.8284)" fill="#FFFFFF" stroke="#BA4100" stroke-miterlimit="10" width="57.248" height="69.541"/>
				
					<line fill="none" stroke="#BA4100" stroke-width="2" stroke-miterlimit="10" x1="231.366" y1="120.758" x2="267.437" y2="100.705"/>
				
					<line fill="none" stroke="#BA4100" stroke-width="2" stroke-miterlimit="10" x1="236.186" y1="128.723" x2="272.256" y2="108.672"/>
				<path fill="#BA4100" d="M261.747,134.221c0.807,2.135,13.293,15.248,12.809,10.5c-0.339-3.314-3.019-6.402-6.479-8.314
					c-0.898-0.497-2.804-1.389-4.602-1.699c3.349-4.559,6.228-11.474,4.207-15.003C264.629,114.375,262.795,134.348,261.747,134.221
					c-8.122-0.986-13.666,3.619-16.325,6.834c-2.868,3.467,14.041-1.58,16.915-5.424"/>
			</g>
		</g>
	</g>
	<g display="inline">
		<circle fill="#BA4100" stroke="#BA4100" stroke-width="2" stroke-miterlimit="10" cx="51.7" cy="119.38" r="47"/>
		<g>
			<defs>
				<circle id="SVGID_11_" cx="51.7" cy="119.38" r="41.756"/>
			</defs>
			<clipPath id="SVGID_12_">
				<use xlink:href="#SVGID_11_"  overflow="visible"/>
			</clipPath>
			<g clip-path="url(#SVGID_12_)">
				<path fill="#FFFFFF" d="M17.852,106.994c2.943-0.462,5.734,1.773,6.24,4.991c0.502,3.217-1.474,6.199-4.415,6.66
					c-2.939,0.46-5.732-1.775-6.236-4.992C12.938,110.437,14.913,107.453,17.852,106.994z"/>
				<path fill="#FFFFFF" d="M40.107,113.054c-7.707-0.001-11.311,7.277-13.448,14.525c-1.382-3.873-4.092-6.449-7.153-6.125
					c-3.915,0.411-6.41,5.375-5.807,11.097c0.02,0.188,0.426,8.483,1.25,16.301C22.583,158.222,34,164.575,46,165.845
					c0-6.462,0-25.986,0-31.819C46,128.715,47.852,113.054,40.107,113.054z"/>
				
					<ellipse transform="matrix(0.8511 0.5251 -0.5251 0.8511 66.2985 -22.744)" fill="#FFFFFF" cx="73.238" cy="105.487" rx="6.405" ry="9.554"/>
				<path fill="#FFFFFF" d="M72.15,118.427c-4.487-1.15-9.706,2.053-7.496,10.032c2.145,8.679-2.77,11.829-4.259,21.116
					c-1.042,6.494-0.873,11.972-0.466,15.767c7.161-1.273,13.757-4.171,19.391-8.312c-1.368-16.211-0.25-20.078,0.562-25.861
					C80.97,123.431,76.806,119.619,72.15,118.427z"/>
				<ellipse fill="#FFFFFF" cx="41.046" cy="97.613" rx="5.623" ry="10.569"/>
			</g>
		</g>
		<g>
			
				<ellipse transform="matrix(-0.1548 -0.988 0.988 -0.1548 -6.897 152.1148)" fill="none" stroke="#FFFFFF" stroke-miterlimit="10" cx="61.623" cy="79.008" rx="2.785" ry="2.546"/>
			
				<ellipse transform="matrix(-0.1548 -0.9879 0.9879 -0.1548 -54.7164 186.4306)" fill="none" stroke="#FFFFFF" stroke-miterlimit="10" cx="52.387" cy="116.62" rx="1.812" ry="1.656"/>
			
				<ellipse transform="matrix(-0.1548 -0.9879 0.9879 -0.1548 -39.885 184.3757)" fill="none" stroke="#FFFFFF" stroke-miterlimit="10" cx="58.924" cy="109.249" rx="1.373" ry="1.256"/>
			
				<ellipse transform="matrix(-0.5892 0.808 -0.808 -0.5892 156.455 104.5263)" fill="none" stroke="#FFFFFF" stroke-miterlimit="10" cx="51.656" cy="92.036" rx="1.119" ry="1.024"/>
			
				<ellipse transform="matrix(-0.5892 0.808 -0.808 -0.5892 133.6126 146.14)" fill="none" stroke="#FFFFFF" stroke-miterlimit="10" cx="29.656" cy="107.036" rx="1.119" ry="1.024"/>
			
				<ellipse transform="matrix(-0.1548 -0.9879 0.9879 -0.1548 -20.4706 155.684)" fill="none" stroke="#FFFFFF" stroke-miterlimit="10" cx="56.361" cy="86.599" rx="1.787" ry="1.634"/>
			
				<ellipse transform="matrix(-0.1549 -0.9879 0.9879 -0.1549 -102.6762 140.1769)" fill="none" stroke="#FFFFFF" stroke-miterlimit="10" cx="8.615" cy="114.002" rx="1.081" ry="0.989"/>
			
				<ellipse transform="matrix(-0.1548 -0.988 0.988 -0.1548 -65.564 197.9867)" fill="none" stroke="#FFFFFF" stroke-miterlimit="10" cx="51.912" cy="127.04" rx="2.671" ry="2.443"/>
			
				<ellipse transform="matrix(-0.1548 -0.9879 0.9879 -0.1548 -64.3904 212.9937)" fill="none" stroke="#FFFFFF" stroke-miterlimit="10" cx="58.912" cy="134.04" rx="3.427" ry="3.134"/>
			
				<ellipse transform="matrix(-0.1549 -0.9879 0.9879 -0.1549 0.7307 218.7051)" fill="none" stroke="#FFFFFF" stroke-miterlimit="10" cx="93.912" cy="109.04" rx="1.985" ry="1.815"/>
			
				<ellipse transform="matrix(-0.1548 -0.9879 0.9879 -0.1548 -2.5136 206.7628)" fill="none" stroke="#FFFFFF" stroke-miterlimit="10" cx="87.183" cy="104.457" rx="1.294" ry="1.184"/>
			
				<ellipse transform="matrix(-0.1547 -0.988 0.988 -0.1547 -8.9992 232.3804)" fill="none" stroke="#FFFFFF" stroke-miterlimit="10" cx="94.912" cy="120.04" rx="2.894" ry="2.647"/>
			
				<ellipse transform="matrix(-0.1548 -0.9879 0.9879 -0.1548 -26.1334 233.7222)" fill="none" stroke="#FFFFFF" stroke-miterlimit="10" cx="86.912" cy="128.04" rx="4.003" ry="3.661"/>
		</g>
	</g>
	<g display="inline">
		<circle fill="#BA4100" stroke="#BA4100" stroke-miterlimit="10" cx="626.797" cy="93.213" r="14"/>
		<polyline fill="none" stroke="#FFFFFF" stroke-width="2" stroke-miterlimit="10" points="628.406,100.82 620.646,93.061 
			628.102,85.604 		"/>
	</g>
	<g display="inline">
		<circle fill="#336362" stroke="#336362" stroke-miterlimit="10" cx="591.358" cy="90.652" r="10"/>
		<g>
			
				<line fill="none" stroke="#FFFFFF" stroke-width="2" stroke-miterlimit="10" x1="586.911" y1="95.099" x2="595.805" y2="86.206"/>
			
				<line fill="none" stroke="#FFFFFF" stroke-width="2" stroke-miterlimit="10" x1="595.805" y1="95.099" x2="586.911" y2="86.206"/>
		</g>
	</g>
</g>
</svg>
