<?xml version="1.0" encoding="UTF-8" standalone="no"?>
<svg
   xmlns:dc="http://purl.org/dc/elements/1.1/"
   xmlns:cc="http://creativecommons.org/ns#"
   xmlns:rdf="http://www.w3.org/1999/02/22-rdf-syntax-ns#"
   xmlns:svg="http://www.w3.org/2000/svg"
   xmlns="http://www.w3.org/2000/svg"
   xmlns:xlink="http://www.w3.org/1999/xlink"
   xmlns:sodipodi="http://sodipodi.sourceforge.net/DTD/sodipodi-0.dtd"
   xmlns:inkscape="http://www.inkscape.org/namespaces/inkscape"
   sodipodi:docname="Aren-logo.svg"
   inkscape:version="1.0 (4035a4fb49, 2020-05-01)"
   id="svg2"
   xml:space="preserve"
   enable-background="new 0 0 105 37"
   viewBox="0 0 37 37"
   height="37"
   width="37"
   y="0px"
   x="0px"
   version="1.1"><metadata
     id="metadata356"><rdf:RDF><cc:Work
         rdf:about=""><dc:format>image/svg+xml</dc:format><dc:type
           rdf:resource="http://purl.org/dc/dcmitype/StillImage" /><dc:title></dc:title></cc:Work></rdf:RDF></metadata><defs
     id="defs354" /><sodipodi:namedview
     inkscape:document-rotation="0"
     inkscape:current-layer="svg2"
     inkscape:window-maximized="1"
     inkscape:window-y="0"
     inkscape:window-x="0"
     inkscape:cy="21.982087"
     inkscape:cx="4.5481184"
     inkscape:zoom="11.809524"
     inkscape:snap-page="false"
     showgrid="false"
     id="namedview352"
     inkscape:window-height="1016"
     inkscape:window-width="1920"
     inkscape:pageshadow="2"
     inkscape:pageopacity="0"
     guidetolerance="10"
     gridtolerance="10"
     objecttolerance="10"
     borderopacity="1"
     bordercolor="#666666"
     pagecolor="#ffffff" /><symbol
     viewBox="-13 -11.994 26 23.988"
     id="coche"><path
       style="fill:none;stroke:#ba4100;stroke-width:4;stroke-linejoin:bevel;stroke-miterlimit:10"
       inkscape:connector-curvature="0"
       id="path5"
       d="m -11.347,0.62 c 3.135,-3.705 6.19,-7.326 7.045,-11.886 2.565,6.555 6.27,14.27 15.96,21.67"
       stroke-miterlimit="10" /><polygon
       style="display:none;fill:none"
       id="polygon7"
       points="-13,-11 -13,11 13,11 13,-11 "
       display="none" /></symbol><path
     inkscape:export-ydpi="125.87624"
     inkscape:export-xdpi="125.87624"
     d="m 21.761194,8.864548 c -3.841,0 -7.128,1.829 -8.464,4.829 l -7.0230005,0 0,15 13.0000005,0 0,-5.776 c 1,0.315 1.752,0.487 2.857,0.487 5.021,0 8.922,-3.215 8.922,-7.27 0,-4.055 -4.27,-7.27 -9.292,-7.27 z m -14.4870005,18.829 0,-13 5.6350005,0 c -0.161,0 -0.255,1.113 -0.255,1.698 0,0.442 0.064,0.302 0.158,1.302 l -3.5380005,0 0,1 3.8510005,0 c 0.188,0 0.414,0.912 0.713,1.336 l -0.19,0.664 -4.3740005,0 0,1 4.0890005,0 -0.146,0.513 -0.426,1.487 -3.5170005,0 0,1 3.2310005,0 -0.214,0.58 3.466,-1.412 2.517,-1.006 0,4.838 -11.0000005,0 z m 14.8570005,-5.89 c -1.159,0 -1.857,-0.214 -2.857,-0.575 l 0,-0.07 c 0,-0.063 -0.697,-0.121 -0.852,-0.192 l -0.27,0.036 c -0.03,-0.013 -0.155,-0.022 -0.184,-0.036 l -3.167,1.337 0.825,-2.969 c -0.848,-0.932 -1.361,-2.064 -1.361,-3.286 0,-0.598 0.114,-1.174 0.334,-1.715 0.05,-0.035 0.104,-0.177 0.165,-0.351 1.083,-2.156 3.803,-3.688 6.998,-3.688 4.146,0 7.69,2.576 7.69,5.755 0.001,3.178 -3.175,5.754 -7.321,5.754 z"
     id="path40"
     inkscape:connector-curvature="0"
     style="fill:#ffffff" /><g
     style="display:none"
     display="none"
     id="survol"><g
       style="display:inline"
       id="g145"
       display="inline"><circle
         style="fill:#ffffff;stroke:#ba4100;stroke-miterlimit:10"
         id="circle147"
         r="47"
         cy="119.38"
         cx="51.700001"
         stroke-miterlimit="10" /><g
         id="g149"><defs
           id="defs151"><circle
             r="41.756001"
             cy="119.38"
             cx="51.700001"
             id="SVGID_5_" /></defs><clipPath
           id="SVGID_6_"><use
             height="100%"
             width="100%"
             y="0"
             x="0"
             style="overflow:visible"
             id="use155"
             overflow="visible"
             xlink:href="#SVGID_5_" /></clipPath><g
           id="g157"
           clip-path="url(#SVGID_6_)"><path
             style="fill:none;stroke:#ba4100;stroke-width:3;stroke-miterlimit:10"
             inkscape:connector-curvature="0"
             id="path159"
             d="m 17.852,106.994 c 2.943,-0.462 5.734,1.773 6.24,4.991 0.502,3.217 -1.474,6.199 -4.415,6.66 -2.939,0.46 -5.732,-1.775 -6.236,-4.992 -0.503,-3.216 1.472,-6.2 4.411,-6.659 z"
             stroke-miterlimit="10" /><path
             style="fill:none;stroke:#ba4100;stroke-width:3;stroke-miterlimit:10"
             inkscape:connector-curvature="0"
             id="path161"
             d="m 39.857,113.054 c -7.707,-0.001 -11.186,7.277 -13.323,14.525 -1.382,-3.873 -4.029,-6.449 -7.091,-6.125 -3.915,0.411 -6.378,5.375 -5.776,11.097 0.02,0.188 0.192,8.483 1.016,16.301 7.634,9.37 18.816,15.724 30.816,16.993 0,-6.462 0,-25.986 0,-31.819 10e-4,-5.311 2.103,-20.972 -5.642,-20.972 z"
             stroke-miterlimit="10" /><ellipse
             style="fill:none;stroke:#ba4100;stroke-width:3;stroke-miterlimit:10"
             id="ellipse163"
             ry="9.5539999"
             rx="6.4050002"
             cy="105.487"
             cx="73.237999"
             stroke-miterlimit="10"
             transform="matrix(0.8511,0.5251,-0.5251,0.8511,66.2985,-22.744)" /><path
             style="fill:none;stroke:#ba4100;stroke-width:3;stroke-miterlimit:10"
             inkscape:connector-curvature="0"
             id="path165"
             d="m 72.15,118.427 c -4.487,-1.15 -9.706,2.053 -7.496,10.032 2.145,8.679 -2.77,11.829 -4.259,21.116 -1.042,6.494 -0.873,11.972 -0.466,15.767 7.161,-1.273 13.757,-4.171 19.391,-8.312 -1.368,-16.211 -0.25,-20.078 0.562,-25.861 1.088,-7.738 -3.076,-11.55 -7.732,-12.742 z"
             stroke-miterlimit="10" /><ellipse
             style="fill:none;stroke:#ba4100;stroke-width:3;stroke-miterlimit:10"
             id="ellipse167"
             ry="10.569"
             rx="5.6230001"
             cy="97.612999"
             cx="41.046001"
             stroke-miterlimit="10" /></g></g><g
         id="g169"><ellipse
           style="fill:none;stroke:#ba4100;stroke-miterlimit:10"
           id="ellipse171"
           ry="2.546"
           rx="2.7850001"
           cy="79.008003"
           cx="61.623001"
           stroke-miterlimit="10"
           transform="matrix(-0.1548,-0.988,0.988,-0.1548,-6.897,152.1148)" /><ellipse
           style="fill:none;stroke:#ba4100;stroke-miterlimit:10"
           id="ellipse173"
           ry="1.656"
           rx="1.812"
           cy="116.62"
           cx="52.387001"
           stroke-miterlimit="10"
           transform="matrix(-0.1548,-0.9879,0.9879,-0.1548,-54.7164,186.4306)" /><ellipse
           style="fill:none;stroke:#ba4100;stroke-miterlimit:10"
           id="ellipse175"
           ry="1.256"
           rx="1.373"
           cy="109.249"
           cx="58.924"
           stroke-miterlimit="10"
           transform="matrix(-0.1548,-0.9879,0.9879,-0.1548,-39.885,184.3757)" /><ellipse
           style="fill:none;stroke:#ba4100;stroke-miterlimit:10"
           id="ellipse177"
           ry="1.024"
           rx="1.119"
           cy="92.036003"
           cx="51.655998"
           stroke-miterlimit="10"
           transform="matrix(-0.5892,0.808,-0.808,-0.5892,156.455,104.5263)" /><ellipse
           style="fill:none;stroke:#ba4100;stroke-miterlimit:10"
           id="ellipse179"
           ry="1.024"
           rx="1.119"
           cy="107.036"
           cx="29.656"
           stroke-miterlimit="10"
           transform="matrix(-0.5892,0.808,-0.808,-0.5892,133.6126,146.14)" /><ellipse
           style="fill:none;stroke:#ba4100;stroke-miterlimit:10"
           id="ellipse181"
           ry="1.6339999"
           rx="1.7869999"
           cy="86.598999"
           cx="56.361"
           stroke-miterlimit="10"
           transform="matrix(-0.1548,-0.9879,0.9879,-0.1548,-20.4706,155.684)" /><ellipse
           style="fill:none;stroke:#ba4100;stroke-miterlimit:10"
           id="ellipse183"
           ry="0.98900002"
           rx="1.081"
           cy="114.002"
           cx="8.6149998"
           stroke-miterlimit="10"
           transform="matrix(-0.1549,-0.9879,0.9879,-0.1549,-102.6762,140.1769)" /><ellipse
           style="fill:none;stroke:#ba4100;stroke-miterlimit:10"
           id="ellipse185"
           ry="2.4430001"
           rx="2.671"
           cy="127.04"
           cx="51.911999"
           stroke-miterlimit="10"
           transform="matrix(-0.1548,-0.988,0.988,-0.1548,-65.564,197.9867)" /><ellipse
           style="fill:none;stroke:#ba4100;stroke-miterlimit:10"
           id="ellipse187"
           ry="3.1340001"
           rx="3.427"
           cy="134.03999"
           cx="58.911999"
           stroke-miterlimit="10"
           transform="matrix(-0.1548,-0.9879,0.9879,-0.1548,-64.3904,212.9937)" /><ellipse
           style="fill:none;stroke:#ba4100;stroke-miterlimit:10"
           id="ellipse189"
           ry="1.8150001"
           rx="1.985"
           cy="109.04"
           cx="93.912003"
           stroke-miterlimit="10"
           transform="matrix(-0.1549,-0.9879,0.9879,-0.1549,0.7307,218.7051)" /><ellipse
           style="fill:none;stroke:#ba4100;stroke-miterlimit:10"
           id="ellipse191"
           ry="1.184"
           rx="1.294"
           cy="104.457"
           cx="87.182999"
           stroke-miterlimit="10"
           transform="matrix(-0.1548,-0.9879,0.9879,-0.1548,-2.5136,206.7628)" /><ellipse
           style="fill:none;stroke:#ba4100;stroke-miterlimit:10"
           id="ellipse193"
           ry="2.6470001"
           rx="2.8940001"
           cy="120.04"
           cx="94.912003"
           stroke-miterlimit="10"
           transform="matrix(-0.1547,-0.988,0.988,-0.1547,-8.9992,232.3804)" /><ellipse
           style="fill:none;stroke:#ba4100;stroke-miterlimit:10"
           id="ellipse195"
           ry="3.661"
           rx="4.0029998"
           cy="128.03999"
           cx="86.912003"
           stroke-miterlimit="10"
           transform="matrix(-0.1548,-0.9879,0.9879,-0.1548,-26.1334,233.7222)" /></g><circle
         style="fill:none;stroke:#60c3c5;stroke-miterlimit:10"
         id="circle197"
         r="50"
         cy="119.38"
         cx="51.700001"
         stroke-miterlimit="10" /></g><g
       style="display:inline"
       id="g199"
       display="inline"><g
         id="g201"><circle
           style="fill:#ffffff;stroke:#ba4100;stroke-linejoin:bevel;stroke-miterlimit:10"
           id="circle203"
           r="47"
           cy="119.396"
           cx="252.821"
           stroke-miterlimit="10" /><g
           id="g205"><defs
             id="defs207"><circle
               r="41.744999"
               cy="119.396"
               cx="252.82201"
               id="SVGID_7_" /></defs><clipPath
             id="SVGID_8_"><use
               height="100%"
               width="100%"
               y="0"
               x="0"
               style="overflow:visible"
               id="use211"
               overflow="visible"
               xlink:href="#SVGID_7_" /></clipPath><g
             id="g213"
             clip-path="url(#SVGID_8_)"><rect
               style="fill:none;stroke:#ba4100;stroke-miterlimit:10"
               id="rect215"
               height="69.541"
               width="57.248001"
               stroke-miterlimit="10"
               transform="matrix(0.8741,-0.4858,0.4858,0.8741,-31.6147,143.8284)"
               y="98.120003"
               x="232.976" /><line
               style="fill:none;stroke:#ba4100;stroke-width:3;stroke-miterlimit:10"
               id="line217"
               y2="100.705"
               x2="267.43701"
               y1="120.758"
               x1="231.366"
               stroke-miterlimit="10" /><line
               style="fill:none;stroke:#ba4100;stroke-width:3;stroke-miterlimit:10"
               id="line219"
               y2="108.672"
               x2="272.25601"
               y1="128.72301"
               x1="236.186"
               stroke-miterlimit="10" /><path
               style="fill:#ba4100"
               inkscape:connector-curvature="0"
               id="path221"
               d="m 261.747,134.221 c 0.807,2.135 13.293,15.248 12.809,10.5 -0.339,-3.314 -3.019,-6.402 -6.479,-8.314 -0.898,-0.497 -2.804,-1.389 -4.602,-1.699 3.349,-4.559 6.228,-11.474 4.207,-15.003 -3.053,-5.33 -4.887,14.643 -5.935,14.516 -8.122,-0.986 -13.666,3.619 -16.325,6.834 -2.868,3.467 14.041,-1.58 16.915,-5.424" /></g></g></g><circle
         style="fill:none;stroke:#60c3c5;stroke-linejoin:bevel;stroke-miterlimit:10"
         id="circle223"
         r="50"
         cy="119.396"
         cx="252.821"
         stroke-miterlimit="10" /></g><g
       style="display:inline"
       id="g225"
       display="inline"><g
         id="g227"><circle
           style="fill:#ffffff;stroke:#ba4100;stroke-miterlimit:10"
           id="circle229"
           r="47"
           cy="119.396"
           cx="433.92599"
           stroke-miterlimit="10" /><polygon
           style="fill:none;stroke:#ba4100;stroke-miterlimit:10"
           id="polygon231"
           points="463.264,119.5 433.5,149.264 433.5,89.736 "
           stroke-miterlimit="10" /><path
           style="fill:#ffffff;stroke:#ba4100;stroke-width:3;stroke-miterlimit:10"
           inkscape:connector-curvature="0"
           id="path233"
           d="m 423.567,104.935 c 10.684,0 19.343,6.639 19.343,14.83 0,8.189 -8.659,14.828 -19.343,14.828 -3.667,0 -7.087,-0.798 -10.011,-2.158 l -8.041,3.447 2.186,-7.649 c -2.185,-2.402 -3.476,-5.319 -3.476,-8.468 10e-4,-8.192 8.659,-14.83 19.342,-14.83"
           stroke-miterlimit="10" /></g><circle
         style="fill:none;stroke:#60c3c5;stroke-miterlimit:10"
         id="circle235"
         r="50"
         cy="119.396"
         cx="433.92599"
         stroke-miterlimit="10" /></g><g
       style="display:inline"
       id="g237"
       display="inline"><circle
         style="fill:none;stroke:#ba4100;stroke-width:2;stroke-miterlimit:10"
         id="circle239"
         r="14"
         cy="93.212997"
         cx="626.797"
         stroke-miterlimit="10" /><polyline
         style="fill:none;stroke:#ba4100;stroke-miterlimit:10"
         id="polyline241"
         points="628.406,100.82 620.646,93.061 628.102,85.604   "
         stroke-miterlimit="10" /></g><g
       style="display:inline"
       id="g243"
       display="inline"><circle
         style="fill:none;stroke:#336362;stroke-width:2;stroke-miterlimit:10"
         id="circle245"
         r="10"
         cy="90.652"
         cx="591.35797"
         stroke-miterlimit="10" /><g
         id="g247"><line
           style="fill:none;stroke:#336362;stroke-miterlimit:10"
           id="line249"
           y2="86.206001"
           x2="595.80499"
           y1="95.098999"
           x1="586.91101"
           stroke-miterlimit="10" /><line
           style="fill:none;stroke:#336362;stroke-miterlimit:10"
           id="line251"
           y2="86.206001"
           x2="586.91101"
           y1="95.098999"
           x1="595.80499"
           stroke-miterlimit="10" /></g></g></g><g
     style="display:none"
     display="none"
     id="clic"><g
       style="display:inline"
       id="g254"
       display="inline"><circle
         style="fill:#ba4100;stroke:#ba4100;stroke-width:2;stroke-miterlimit:10"
         id="circle256"
         r="47"
         cy="119.396"
         cx="433.92599"
         stroke-miterlimit="10" /><polygon
         style="fill:#ffffff;stroke:#ffffff;stroke-miterlimit:10"
         id="polygon258"
         points="463.264,119.5 433.5,149.264 433.5,89.736 "
         stroke-miterlimit="10" /><path
         style="fill:#ffffff;stroke:#ba4100;stroke-width:2;stroke-miterlimit:10"
         inkscape:connector-curvature="0"
         id="path260"
         d="m 423.567,104.935 c 10.684,0 19.343,6.639 19.343,14.83 0,8.189 -8.659,14.828 -19.343,14.828 -3.667,0 -7.087,-0.798 -10.011,-2.158 l -8.041,3.447 2.186,-7.649 c -2.185,-2.402 -3.476,-5.319 -3.476,-8.468 10e-4,-8.192 8.659,-14.83 19.342,-14.83"
         stroke-miterlimit="10" /></g><g
       style="display:inline"
       id="g262"
       display="inline"><circle
         style="fill:#ba4100;stroke:#ba4100;stroke-width:2;stroke-linejoin:bevel;stroke-miterlimit:10"
         id="circle264"
         r="47"
         cy="119.396"
         cx="252.821"
         stroke-miterlimit="10" /><g
         id="g266"><defs
           id="defs268"><circle
             r="41.744999"
             cy="119.396"
             cx="252.82201"
             id="SVGID_9_" /></defs><clipPath
           id="SVGID_10_"><use
             height="100%"
             width="100%"
             y="0"
             x="0"
             style="overflow:visible"
             id="use272"
             overflow="visible"
             xlink:href="#SVGID_9_" /></clipPath><g
           id="g274"
           clip-path="url(#SVGID_10_)"><rect
             style="fill:#ffffff;stroke:#ba4100;stroke-miterlimit:10"
             id="rect276"
             height="69.541"
             width="57.248001"
             stroke-miterlimit="10"
             transform="matrix(0.8741,-0.4858,0.4858,0.8741,-31.6147,143.8284)"
             y="98.120003"
             x="232.976" /><line
             style="fill:none;stroke:#ba4100;stroke-width:2;stroke-miterlimit:10"
             id="line278"
             y2="100.705"
             x2="267.43701"
             y1="120.758"
             x1="231.366"
             stroke-miterlimit="10" /><line
             style="fill:none;stroke:#ba4100;stroke-width:2;stroke-miterlimit:10"
             id="line280"
             y2="108.672"
             x2="272.25601"
             y1="128.72301"
             x1="236.186"
             stroke-miterlimit="10" /><path
             style="fill:#ba4100"
             inkscape:connector-curvature="0"
             id="path282"
             d="m 261.747,134.221 c 0.807,2.135 13.293,15.248 12.809,10.5 -0.339,-3.314 -3.019,-6.402 -6.479,-8.314 -0.898,-0.497 -2.804,-1.389 -4.602,-1.699 3.349,-4.559 6.228,-11.474 4.207,-15.003 -3.053,-5.33 -4.887,14.643 -5.935,14.516 -8.122,-0.986 -13.666,3.619 -16.325,6.834 -2.868,3.467 14.041,-1.58 16.915,-5.424" /></g></g></g><g
       style="display:inline"
       id="g284"
       display="inline"><circle
         style="fill:#ba4100;stroke:#ba4100;stroke-width:2;stroke-miterlimit:10"
         id="circle286"
         r="47"
         cy="119.38"
         cx="51.700001"
         stroke-miterlimit="10" /><g
         id="g288"><defs
           id="defs290"><circle
             r="41.756001"
             cy="119.38"
             cx="51.700001"
             id="SVGID_11_" /></defs><clipPath
           id="SVGID_12_"><use
             height="100%"
             width="100%"
             y="0"
             x="0"
             style="overflow:visible"
             id="use294"
             overflow="visible"
             xlink:href="#SVGID_11_" /></clipPath><g
           id="g296"
           clip-path="url(#SVGID_12_)"><path
             style="fill:#ffffff"
             inkscape:connector-curvature="0"
             id="path298"
             d="m 17.852,106.994 c 2.943,-0.462 5.734,1.773 6.24,4.991 0.502,3.217 -1.474,6.199 -4.415,6.66 -2.939,0.46 -5.732,-1.775 -6.236,-4.992 -0.503,-3.216 1.472,-6.2 4.411,-6.659 z" /><path
             style="fill:#ffffff"
             inkscape:connector-curvature="0"
             id="path300"
             d="m 40.107,113.054 c -7.707,-0.001 -11.311,7.277 -13.448,14.525 -1.382,-3.873 -4.092,-6.449 -7.153,-6.125 -3.915,0.411 -6.41,5.375 -5.807,11.097 0.02,0.188 0.426,8.483 1.25,16.301 7.634,9.37 19.051,15.723 31.051,16.993 0,-6.462 0,-25.986 0,-31.819 0,-5.311 1.852,-20.972 -5.893,-20.972 z" /><ellipse
             style="fill:#ffffff"
             id="ellipse302"
             ry="9.5539999"
             rx="6.4050002"
             cy="105.487"
             cx="73.237999"
             transform="matrix(0.8511,0.5251,-0.5251,0.8511,66.2985,-22.744)" /><path
             style="fill:#ffffff"
             inkscape:connector-curvature="0"
             id="path304"
             d="m 72.15,118.427 c -4.487,-1.15 -9.706,2.053 -7.496,10.032 2.145,8.679 -2.77,11.829 -4.259,21.116 -1.042,6.494 -0.873,11.972 -0.466,15.767 7.161,-1.273 13.757,-4.171 19.391,-8.312 -1.368,-16.211 -0.25,-20.078 0.562,-25.861 1.088,-7.738 -3.076,-11.55 -7.732,-12.742 z" /><ellipse
             style="fill:#ffffff"
             id="ellipse306"
             ry="10.569"
             rx="5.6230001"
             cy="97.612999"
             cx="41.046001" /></g></g><g
         id="g308"><ellipse
           style="fill:none;stroke:#ffffff;stroke-miterlimit:10"
           id="ellipse310"
           ry="2.546"
           rx="2.7850001"
           cy="79.008003"
           cx="61.623001"
           stroke-miterlimit="10"
           transform="matrix(-0.1548,-0.988,0.988,-0.1548,-6.897,152.1148)" /><ellipse
           style="fill:none;stroke:#ffffff;stroke-miterlimit:10"
           id="ellipse312"
           ry="1.656"
           rx="1.812"
           cy="116.62"
           cx="52.387001"
           stroke-miterlimit="10"
           transform="matrix(-0.1548,-0.9879,0.9879,-0.1548,-54.7164,186.4306)" /><ellipse
           style="fill:none;stroke:#ffffff;stroke-miterlimit:10"
           id="ellipse314"
           ry="1.256"
           rx="1.373"
           cy="109.249"
           cx="58.924"
           stroke-miterlimit="10"
           transform="matrix(-0.1548,-0.9879,0.9879,-0.1548,-39.885,184.3757)" /><ellipse
           style="fill:none;stroke:#ffffff;stroke-miterlimit:10"
           id="ellipse316"
           ry="1.024"
           rx="1.119"
           cy="92.036003"
           cx="51.655998"
           stroke-miterlimit="10"
           transform="matrix(-0.5892,0.808,-0.808,-0.5892,156.455,104.5263)" /><ellipse
           style="fill:none;stroke:#ffffff;stroke-miterlimit:10"
           id="ellipse318"
           ry="1.024"
           rx="1.119"
           cy="107.036"
           cx="29.656"
           stroke-miterlimit="10"
           transform="matrix(-0.5892,0.808,-0.808,-0.5892,133.6126,146.14)" /><ellipse
           style="fill:none;stroke:#ffffff;stroke-miterlimit:10"
           id="ellipse320"
           ry="1.6339999"
           rx="1.7869999"
           cy="86.598999"
           cx="56.361"
           stroke-miterlimit="10"
           transform="matrix(-0.1548,-0.9879,0.9879,-0.1548,-20.4706,155.684)" /><ellipse
           style="fill:none;stroke:#ffffff;stroke-miterlimit:10"
           id="ellipse322"
           ry="0.98900002"
           rx="1.081"
           cy="114.002"
           cx="8.6149998"
           stroke-miterlimit="10"
           transform="matrix(-0.1549,-0.9879,0.9879,-0.1549,-102.6762,140.1769)" /><ellipse
           style="fill:none;stroke:#ffffff;stroke-miterlimit:10"
           id="ellipse324"
           ry="2.4430001"
           rx="2.671"
           cy="127.04"
           cx="51.911999"
           stroke-miterlimit="10"
           transform="matrix(-0.1548,-0.988,0.988,-0.1548,-65.564,197.9867)" /><ellipse
           style="fill:none;stroke:#ffffff;stroke-miterlimit:10"
           id="ellipse326"
           ry="3.1340001"
           rx="3.427"
           cy="134.03999"
           cx="58.911999"
           stroke-miterlimit="10"
           transform="matrix(-0.1548,-0.9879,0.9879,-0.1548,-64.3904,212.9937)" /><ellipse
           style="fill:none;stroke:#ffffff;stroke-miterlimit:10"
           id="ellipse328"
           ry="1.8150001"
           rx="1.985"
           cy="109.04"
           cx="93.912003"
           stroke-miterlimit="10"
           transform="matrix(-0.1549,-0.9879,0.9879,-0.1549,0.7307,218.7051)" /><ellipse
           style="fill:none;stroke:#ffffff;stroke-miterlimit:10"
           id="ellipse330"
           ry="1.184"
           rx="1.294"
           cy="104.457"
           cx="87.182999"
           stroke-miterlimit="10"
           transform="matrix(-0.1548,-0.9879,0.9879,-0.1548,-2.5136,206.7628)" /><ellipse
           style="fill:none;stroke:#ffffff;stroke-miterlimit:10"
           id="ellipse332"
           ry="2.6470001"
           rx="2.8940001"
           cy="120.04"
           cx="94.912003"
           stroke-miterlimit="10"
           transform="matrix(-0.1547,-0.988,0.988,-0.1547,-8.9992,232.3804)" /><ellipse
           style="fill:none;stroke:#ffffff;stroke-miterlimit:10"
           id="ellipse334"
           ry="3.661"
           rx="4.0029998"
           cy="128.03999"
           cx="86.912003"
           stroke-miterlimit="10"
           transform="matrix(-0.1548,-0.9879,0.9879,-0.1548,-26.1334,233.7222)" /></g></g><g
       style="display:inline"
       id="g336"
       display="inline"><circle
         style="fill:#ba4100;stroke:#ba4100;stroke-miterlimit:10"
         id="circle338"
         r="14"
         cy="93.212997"
         cx="626.797"
         stroke-miterlimit="10" /><polyline
         style="fill:none;stroke:#ffffff;stroke-width:2;stroke-miterlimit:10"
         id="polyline340"
         points="628.406,100.82 620.646,93.061     628.102,85.604   "
         stroke-miterlimit="10" /></g><g
       style="display:inline"
       id="g342"
       display="inline"><circle
         style="fill:#336362;stroke:#336362;stroke-miterlimit:10"
         id="circle344"
         r="10"
         cy="90.652"
         cx="591.35797"
         stroke-miterlimit="10" /><g
         id="g346"><line
           style="fill:none;stroke:#ffffff;stroke-width:2;stroke-miterlimit:10"
           id="line348"
           y2="86.206001"
           x2="595.80499"
           y1="95.098999"
           x1="586.91101"
           stroke-miterlimit="10" /><line
           style="fill:none;stroke:#ffffff;stroke-width:2;stroke-miterlimit:10"
           id="line350"
           y2="86.206001"
           x2="586.91101"
           y1="95.098999"
           x1="595.80499"
           stroke-miterlimit="10" /></g></g></g></svg>
