<svg xmlns="http://www.w3.org/2000/svg" width="94" height="42" viewBox="0 0 94 42"><path fill="#FFF" d="M29 17L29 22 26 22 26 20 20 20 20 37 26 37 26 35 29 35 29 40 17 40 17 17z"/><path fill="#FFF" d="M15.181 4.807L11.031 1.137 11.297 6.669 12.508 5.574 13.421 7.51 14.464 7.02 13.55 5.07z"/><path fill="#FFF" d="M17.648 5.423l-1.47 2.608a2.08 2.08 0 0 1 1.068 1.812 2.094 2.094 0 0 1-2.092 2.095 2.094 2.094 0 0 1-2.091-2.095c0-.11.016-.221.034-.327l-2.95-.474a5.03 5.03 0 0 0-.07.8 5.076 5.076 0 0 0 5.077 5.077 5.077 5.077 0 0 0 5.079-5.077 5.069 5.069 0 0 0-2.585-4.419z"/><path fill="#FFF" d="M2 17L2 22 5 22 5 20 11 20 11 37 5 37 5 35 2 35 2 40 14 40 14 17z"/><path fill="#FFF" d="M91.299 16.205c.723.002 1.227.58 1.225 1.279-.004.714-.51 1.271-1.235 1.271-.705-.002-1.229-.569-1.228-1.278.003-.72.526-1.273 1.238-1.272zm-.014 2.344c.594.002 1.029-.474 1.031-1.066 0-.588-.435-1.072-1.023-1.078-.59-.002-1.025.48-1.027 1.07 0 .587.431 1.072 1.019 1.074zm.384-.386s-.173.055-.364.055c-.41 0-.545-.235-.545-.745.002-.486.135-.728.559-.727.197 0 .354.047.354.047l-.014.249s-.183-.03-.332-.03c-.244 0-.28.155-.282.463-.001.312.055.479.279.479.14.001.333-.03.333-.03l.012.239zM37.136 14.01h1.746v1.822h-1.746V14.01zm0 2.97h1.746v7.644h-1.746V16.98zm4.058 7.644V16.98h1.746v.385s1.118-.566 1.962-.566c2.005 0 2.603 1.406 2.603 3.828v3.997h-1.746v-3.981c0-1.302-.183-2.252-1.193-2.252-.676 0-1.625.383-1.625.383v5.854l-1.747-.004zm10.4-6.097v3.203c0 1.041.215 1.479.795 1.479.43 0 1.15-.045 1.15-.045l.076 1.424s-.936.218-1.471.218c-1.642 0-2.297-.828-2.297-2.882v-3.397h-.904v-1.532h.904v-2.233h1.743v2.233h1.979v1.532h-1.975zm9.218 4.013c.047.535.262.673.707.782l-.109 1.471c-1.087 0-1.607-.2-2.067-.535 0 0-1.071.535-2.235.535-1.334 0-2.344-.966-2.344-2.451 0-1.578.995-2.221 2.512-2.328l1.793-.152v-.487c0-.646-.307-.965-.889-.965-1.379 0-2.973.149-2.973.149l-.061-1.438s1.992-.32 3.125-.32c1.64 0 2.541.703 2.541 2.586v3.153zm-3.335-1.286c-.645.03-.951.459-.951 1.042 0 .612.322 1.026.828 1.026.812 0 1.715-.307 1.715-.307v-1.854l-1.592.093zm10.688-4.211l-.062 1.484s-1.119-.123-1.701-.123c-1.377 0-1.854.675-1.854 2.299 0 1.684.443 2.495 1.868 2.495.582 0 1.699-.107 1.699-.107l.046 1.486s-1.228.215-2.282.215c-2.206 0-3.105-1.333-3.105-4.089 0-2.574.996-3.904 3.151-3.904 1.076 0 2.24.244 2.24.244zm3.584 1.484v3.203c0 1.041.214 1.479.794 1.479.43 0 1.148-.045 1.148-.045l.08 1.424s-.938.218-1.475.218c-1.638 0-2.297-.828-2.297-2.882v-3.397h-.9v-1.532h.903v-2.233h1.746v2.233h1.976v1.532h-1.975zm3.522-4.517h1.746v1.822h-1.746V14.01zm0 2.97h1.746v7.644h-1.746V16.98zm3.95-3.169h1.747v10.813h-1.747V13.811zm9.679 9.311l.031 1.303s-1.44.367-2.912.367c-2.373 0-3.264-1.365-3.264-3.907 0-2.572 1.117-4.087 3.246-4.087 2.146 0 3.188 1.285 3.188 3.49l-.125 1.239H84.52c.018 1.012.443 1.729 1.641 1.729 1.088.004 2.739-.134 2.739-.134zm-1.439-2.927c0-1.271-.396-1.928-1.455-1.928-1.057 0-1.484.703-1.499 1.928h2.954z"/><g><path fill="#FFF" d="M37.156 39.971v-11.63h3.993c3.275 0 4.244 2.441 4.244 5.63 0 3.225-.919 6-4.244 6h-3.993zm3.993-10.444h-2.723v9.257h2.723c2.322 0 2.908-2.457 2.908-4.812 0-2.339-.585-4.445-2.908-4.445zm6.734-1.186h6.852v1.187h-5.58v3.979h4.576v1.169h-4.576v4.109h5.58v1.188h-6.852V28.341zm15.69 1.268s-2.259-.27-3.226-.27c-1.57 0-2.427.652-2.427 1.893 0 1.42.771 1.805 2.741 2.271 2.271.565 3.257 1.169 3.257 3.104 0 2.438-1.168 3.51-3.655 3.51-1.404 0-3.512-.316-3.512-.316l.084-1.136s2.205.269 3.325.269c1.62 0 2.472-.688 2.472-2.271 0-1.188-.697-1.621-2.57-2.058-2.371-.584-3.424-1.234-3.424-3.356 0-2.071 1.338-3.092 3.657-3.092 1.42 0 3.343.319 3.343.319l-.065 1.133zm2.488-1.268h1.287v11.63h-1.287v-11.63zm8.587 5.63h3.142v5.799s-2.356.367-3.676.367c-3.441 0-4.394-2.289-4.394-5.966 0-3.741.949-5.998 4.357-5.998 1.688 0 3.708.401 3.708.401l-.052 1.152s-2.057-.354-3.512-.354c-2.604 0-3.172 1.704-3.172 4.794 0 3.062.551 4.765 3.157 4.765.919 0 2.257-.219 2.306-.219v-3.607h-1.873V33.97h.009v.001zm5.864-5.63h2.356l4.411 10.327h.351V28.341h1.286v11.63h-2.322l-4.461-10.326H81.8v10.326h-1.286v-11.63h-.002z"/></g></svg>