<?xml version="1.0" encoding="utf-8"?>
<!-- Generator: Adobe Illustrator 24.1.0, SVG Export Plug-In . SVG Version: 6.00 Build 0)  -->
<svg version="1.1" id="Calque_1" xmlns="http://www.w3.org/2000/svg" xmlns:xlink="http://www.w3.org/1999/xlink" x="0px" y="0px"
	 viewBox="0 0 761.2 383.2" style="enable-background:new 0 0 761.2 383.2;" xml:space="preserve">
<style type="text/css">
	.st0{fill:#487A18;stroke:#087D80;stroke-width:8;stroke-miterlimit:10;}
	.st1{fill:#087D80;}
	.st2{fill:#087D80;stroke:#087D80;stroke-width:8;stroke-miterlimit:10;}
	.st3{fill:#087D80;stroke:#087D80;stroke-width:6;stroke-miterlimit:10;}
	.st4{fill:#087D80;stroke:#487A18;stroke-width:4;stroke-miterlimit:10;}
</style>
<g>
	<line class="st0" x1="270.2" y1="262.2" x2="233.3" y2="342.6"/>
	<line class="st0" x1="376.1" y1="132.8" x2="338.4" y2="171.4"/>
	<path class="st1" d="M212.4,335.8c3.8-11.7,16.5-18.1,28.2-14.3c11.7,3.8,18.1,16.5,14.3,28.2c-3.8,11.7-16.5,18.1-28.2,14.3
		C214.9,360.2,208.5,347.5,212.4,335.8z"/>
	<line class="st2" x1="155.3" y1="47.9" x2="261" y2="181.8"/>
	<path class="st1" d="M115.5,52.2c11.1-34,47.7-52.5,81.7-41.4c34,11.1,52.5,47.7,41.4,81.7c-11.1,34-47.7,52.5-81.7,41.4
		C122.9,122.8,104.3,86.2,115.5,52.2z"/>
	<path class="st1" d="M377.7,90.8c5.5-16.8,23.6-26,40.4-20.5c16.8,5.5,26,23.6,20.5,40.4c-5.5,16.8-23.6,26-40.4,20.5
		C381.4,125.7,372.2,107.6,377.7,90.8z"/>
	<g>
		<path class="st1" d="M291,267.4c-28.4,0-51.4-23.1-51.4-51.4c0-28.3,23.1-51.4,51.4-51.4c28.3,0,51.4,23.1,51.4,51.4
			C342.4,244.3,319.3,267.4,291,267.4z M291,183.4c-18,0-32.6,14.6-32.6,32.6c0,18,14.6,32.6,32.6,32.6c18,0,32.6-14.6,32.6-32.6
			C323.6,198,309,183.4,291,183.4z"/>
	</g>
</g>
<g>
	<path class="st3" d="M439.4,272.6c0,15.4-1.2,28.9-3.6,40.4c-2.4,11.5-5.6,21-9.6,28.4c-4,7.5-8.8,13-14.3,16.7
		c-5.5,3.7-11.3,5.5-17.5,5.5h-23.7V181.4h23.9c6.1,0,11.9,1.8,17.4,5.5c5.5,3.7,10.2,9.3,14.3,16.9c4.1,7.6,7.3,17,9.6,28.4
		C438.2,243.7,439.4,257.1,439.4,272.6z M374.9,186.6v172h19c5.8,0,11.2-1.7,16.2-5.1c5-3.4,9.4-8.7,13.2-15.7
		c3.8-7,6.7-16,8.8-26.8c2.1-10.8,3.2-23.6,3.2-38.4c0-14.8-1.1-27.5-3.2-38.4c-2.1-10.8-5.1-19.7-8.8-26.8
		c-3.8-7-8.2-12.3-13.2-15.7c-5-3.4-10.4-5.1-16.2-5.1H374.9z"/>
	<path class="st3" d="M467,363.7V181.4h48v5.1h-43.8v80.1h41.2v5.1h-41.2v86.8h45.1v5.1H467z"/>
	<path class="st3" d="M601.5,315c0,9.8-1,17.8-3,24.1c-2,6.3-4.5,11.2-7.6,14.8c-3.1,3.6-6.4,6.1-10,7.6c-3.6,1.5-7.1,2.2-10.3,2.2
		h-29.2V181.4h25.8c3.5,0,7.1,0.7,10.6,2.2c3.6,1.5,6.8,3.9,9.7,7.2c2.9,3.3,5.3,7.8,7.1,13.3c1.9,5.5,2.8,12.4,2.8,20.6
		c0,6.5-0.6,12.2-1.8,17c-1.2,4.8-2.7,8.9-4.6,12.4c-1.9,3.4-4,6.2-6.4,8.2c-2.4,2.1-4.8,3.6-7.2,4.6v0.5c2.4,0.5,5,1.8,7.8,3.7
		c2.8,2,5.4,4.9,7.9,8.6c2.4,3.8,4.5,8.6,6.1,14.4C600.7,300,601.5,307,601.5,315z M593.2,225.2c0-7.4-0.8-13.6-2.3-18.5
		c-1.5-5-3.5-8.9-5.9-11.8c-2.4-2.9-5.3-5-8.5-6.3c-3.2-1.3-6.6-1.9-10.1-1.9h-21.1v78.5h21.6c3.1,0,6.3-0.8,9.4-2.3
		c3.1-1.5,6-3.9,8.5-7.1c2.5-3.2,4.5-7.3,6-12.4C592.5,238.3,593.2,232.2,593.2,225.2z M597.5,315.8c0-8.2-0.8-15.3-2.5-21.1
		c-1.7-5.8-3.9-10.6-6.5-14.2c-2.6-3.6-5.5-6.2-8.7-7.9c-3.1-1.6-6.2-2.4-9.2-2.4h-25.2v88.3h23.9c4.1,0,7.9-0.8,11.4-2.4
		c3.4-1.6,6.4-4.2,8.9-7.6c2.5-3.4,4.4-7.9,5.8-13.3C596.9,329.8,597.5,323.4,597.5,315.8z"/>
	<path class="st3" d="M673.3,311.7h-46.8l-10.2,52h-4.1l34.4-182.3h7.1l33.3,182.3h-4.1L673.3,311.7z M627.4,306.5h44.9l-21.8-121.3
		h-0.8L627.4,306.5z"/>
	<path class="st3" d="M716.4,186.6v177.1h-4.1V186.6h-26.3v-5.1h56.8v5.1H716.4z"/>
</g>
<path class="st1" d="M112.7,236.4h-0.2c-0.9,1.7-2.3,2.9-4.1,3.7c-1.8,0.8-4.4,1.2-7.6,1.2c-5.3-0.1-9.4-1.5-12.2-4.3
	c-3-2.8-4.5-6.3-4.5-10.6c0-4.1,1.3-7.5,3.9-10.2c2.6-2.8,6.4-4.2,11.5-4.2h13.2v-5.2c0.1-4.3-3.2-6.4-9.7-6.3c-0.7,0-8,0.3-8,0.3
	l-3.2-8.5c0,0,3.2-0.6,10.7-1c6-0.3,10.7,1.1,14.3,3.5c3.6,2.4,5.4,6.7,5.4,12.6v33.4h-9.5V236.4z M112.7,220h-11.4
	c-5.5,0.1-8.3,2.1-8.2,5.9c0,1.7,0.7,3.1,2.1,4.2c1.4,1.3,3.6,1.9,6.8,1.9c4,0.1,6.8-0.4,8.5-1.5c1.5-1,2.2-3.4,2.2-7.1V220z"/>
<path class="st1" d="M147.7,191.9h9.5v5.2h0.2c3.1-3.9,7.2-5.8,12.3-5.8c3.8,0.1,7.1,1.3,10,3.8l-6.9,8.5c-2-1.6-4.1-2.5-6.3-2.5
	c-2.4,0-4.5,0.8-6.3,2.5c-2,1.6-3,4.2-3,7.8v29.5h-9.5V191.9z"/>
<path class="st1" d="M197.4,177h9.5v14.9h14.4v7.5h-14.4v28.5c-0.1,2.5,1.1,3.7,3.4,3.6h5.3v9.2h-6.7c-3.3,0-6.1-1.1-8.2-3.2
	c-2.2-2-3.3-5-3.3-8.9v-29.3h-4.8v-7.5h4.8V177z"/>
<g>
	<path class="st1" d="M47,241.9c-14,0-25.4-11.4-25.4-25.4c0-14,11.4-25.4,25.4-25.4c7.1,0,13.9,3,18.7,8.2l-6.7,6.2
		c-3.1-3.4-7.4-5.3-12-5.3c-9,0-16.3,7.3-16.3,16.3c0,9,7.3,16.3,16.3,16.3c4.4,0,8.5-1.7,11.6-4.9l6.5,6.4
		C60.3,239.2,53.9,241.9,47,241.9z"/>
</g>
<path class="st4" d="M267,200"/>
</svg>
